<svg width="138" height="164" viewBox="0 0 138 164" fill="none" xmlns="http://www.w3.org/2000/svg">
<g clip-path="url(#clip0_18_457)">
<path d="M127.795 135.79C128.697 133.882 129.529 131.983 130.295 130.094L107.031 155.528C108.988 154.556 110.88 153.483 112.691 152.303L127.795 135.79Z" fill="#EC6842"/>
<path d="M88.1967 161.644L136.333 109.018C136.536 107.828 136.715 106.644 136.871 105.467L85.0004 162.175C86.0672 162.018 87.1333 161.842 88.1967 161.644Z" fill="#EC6842"/>
<path d="M70.8888 163.13L137.665 90.1255C137.639 89.1762 137.598 88.2325 137.544 87.2946L68.2372 163.065C69.114 163.099 69.9983 163.121 70.8888 163.13Z" fill="#EC6842"/>
<path d="M56.216 161.733L135.976 74.5348C135.822 73.7192 135.66 72.9093 135.488 72.1052L53.9378 161.261C54.6825 161.429 55.4424 161.586 56.216 161.733Z" fill="#EC6842"/>
<path d="M43.7914 157.879L132.458 60.9425C132.219 60.2169 131.973 59.4976 131.722 58.7846L41.9554 156.923C42.5367 157.253 43.1494 157.571 43.7914 157.879Z" fill="#EC6842"/>
<path d="M33.9864 151.16L127.641 48.7708C127.337 48.1131 127.028 47.4627 126.715 46.8197L32.4953 149.827C32.9909 150.283 33.4881 150.728 33.9864 151.16Z" fill="#EC6842"/>
<path d="M25.7355 142.743L121.796 37.7237C121.436 37.1219 121.074 36.5293 120.711 35.9462L24.4471 141.188C24.874 141.715 25.3035 142.233 25.7355 142.743Z" fill="#EC6842"/>
<path d="M18.5687 133.142L115.048 27.6642C114.634 27.1129 114.222 26.5752 113.813 26.0513L17.4463 131.405C17.8168 131.99 18.191 132.569 18.5687 133.142Z" fill="#EC6842"/>
<path d="M12.3508 122.502L107.364 18.6268C106.876 18.1281 106.401 17.6586 105.942 17.2188L11.3875 120.591C11.7038 121.233 12.025 121.87 12.3508 122.502Z" fill="#EC6842"/>
<path d="M7.09458 110.81L98.3869 11.0038C97.8502 10.6162 97.2999 10.2294 96.7363 9.84504L6.30505 108.71C6.56199 109.414 6.82524 110.114 7.09458 110.81Z" fill="#EC6842"/>
<path d="M2.94602 97.9082L88.0822 4.83258C87.4552 4.53248 86.818 4.2409 86.1707 3.95911L2.37221 95.5722C2.55499 96.3532 2.74635 97.132 2.94602 97.9082Z" fill="#EC6842"/>
<path d="M0.268416 83.3976L75.9395 0.669385C75.1757 0.509658 74.4023 0.366942 73.6193 0.242631L0.0103428 80.7164C0.083676 81.6108 0.169822 82.5046 0.268416 83.3976Z" fill="#EC6842"/>
<path d="M0 66.2546L60.6028 0C59.5618 0.125993 58.509 0.288251 57.4449 0.48911L0.357757 62.9002C0.214454 64.015 0.0954462 65.1335 0 66.2546Z" fill="#EC6842"/>
<path d="M6.48395 41.7277L35.8896 9.57953C33.0198 11.4658 30.0974 13.6604 27.1273 16.1959L10.8168 34.0275C9.17621 36.5274 7.73595 39.0987 6.48395 41.7277Z" fill="#EC6842"/>
</g>
<defs>
<clipPath id="clip0_18_457">
<rect width="137.665" height="163.13" fill="white"/>
</clipPath>
</defs>
</svg>
