<svg width="180" height="77" viewBox="0 0 180 77" fill="none" xmlns="http://www.w3.org/2000/svg">
<g clip-path="url(#clip0_18_463)">
<path d="M99.1156 42.8849C97.0888 45.3446 94.8436 47.297 92.8764 47.297C91.161 47.297 84.1354 44.9006 84.1354 39.5361C84.1354 34.4818 86.6771 26.8964 89.1612 19.4831C91.3278 13.0173 93.4505 6.6824 93.8049 2.27166C93.8536 1.66711 94.4932 1.3022 95.0459 1.55274C97.1739 2.51831 101.413 4.85223 101.413 8.1258C101.413 12.3468 99.9312 16.4049 98.2021 21.1392C96.2198 26.567 93.9129 32.8836 93.1427 41.3532C96.6458 38.7461 97.8868 34.4204 97.8868 34.1175L97.9143 34.1021C98.4262 32.2097 99.153 30.2048 99.8793 28.201C101.08 24.8891 102.279 21.5804 102.505 18.7886C102.546 18.2795 103.037 17.9289 103.531 18.058C105.703 18.6255 110.113 20.6448 110.113 24.5865C110.113 26.9804 108.96 30.1659 107.819 33.3187C107.089 35.3369 106.363 37.3419 105.948 39.117C109.273 36.3837 111.454 32.3173 112.138 30.453C112.21 30.1789 112.286 29.9068 112.365 29.6387C112.367 29.6151 112.369 29.5935 112.369 29.5744C112.376 29.5707 112.381 29.5679 112.388 29.564C113.541 25.7183 115.435 22.5194 117.469 20.4853C120.8 17.1549 122.798 17.2259 124.257 17.2777C124.336 17.2805 124.413 17.2833 124.488 17.2854C125.677 17.3188 126.763 17.6096 127.507 18.0113C128.645 18.5137 128.91 19.6813 129.436 22.307C129.597 23.1138 129.763 24.2812 129.382 25.2652C128.686 27.061 127.106 28.573 125.952 28.9773C125.684 29.0715 125.404 28.8803 125.388 28.5966C125.307 27.0944 124.876 25.1933 124.368 23.4002C121.829 27.077 119.167 32.6617 119.167 37.9842C119.167 38.278 119.172 38.5573 119.178 38.8294C125.292 35.2091 131.125 26.6457 133.246 23.139C133.973 20.7277 134.799 18.2529 135.611 15.8191C137.489 10.1925 139.293 4.78515 139.63 0.888012C139.682 0.285274 140.305 -0.0939011 140.856 0.155597C142.978 1.11572 147.242 3.45406 147.242 6.73696C147.242 9.14012 146.233 11.9431 144.953 15.5006C144.115 17.8281 143.161 20.4786 142.298 23.5514C146.318 19.8429 150.743 16.5908 152.076 16.3901C152.163 16.3769 152.251 16.3738 152.348 16.3764C154.44 16.4329 156.324 19.0316 156.324 20.8697C156.324 22.4425 155.589 24.5062 154.694 27.0172C153.373 30.7263 151.704 35.4116 151.543 40.9333C151.528 41.4543 151.092 41.8 150.577 41.7191C147.573 41.2492 144.179 38.6847 144.179 35.5877C144.179 33.1814 145.693 28.5263 147.456 24.4013C144.731 26.777 141.951 29.5321 140.525 31.6531C140.055 34.6629 139.743 37.9834 139.693 41.6716C139.685 42.2425 139.141 42.6512 138.589 42.5044C136.301 41.8973 131.331 39.9262 130.968 35.4814C128.126 38.8037 122.441 44.4649 119.725 44.4649H119.594C115.247 44.4649 112.721 43.2669 111.731 40.5494C109.535 43.4002 106.996 45.8265 104.803 45.8265C103.568 45.8265 100.933 44.7735 99.1156 42.8849Z" fill="#313945"/>
<path d="M77.908 49.1221C78.4586 49.2681 79.0022 48.8615 79.0113 48.2917C79.1844 37.2537 82.0669 29.2073 84.4814 22.4674C86.2602 17.5018 87.785 13.2454 87.785 9.02448C87.785 5.75066 83.5448 3.41648 81.4171 2.45116C80.8649 2.20063 80.2251 2.56502 80.1761 3.16905C79.8145 7.62142 77.6372 14.2093 75.4148 20.9333C72.868 28.6392 70.262 36.524 70.262 41.5786C70.262 46.3929 75.5326 48.4916 77.908 49.1221Z" fill="#313945"/>
<path fill-rule="evenodd" clip-rule="evenodd" d="M14.2185 60.9679C14.7679 61.1134 15.3112 60.7096 15.3216 60.141C15.437 53.8325 16.5854 48.024 18.0798 42.7143C19.3986 40.6361 21.9403 37.9025 24.5149 35.4534C22.6258 40.6231 21.1122 47.1111 21.1122 51.9535C21.1122 56.1361 25.5186 58.1274 28.6941 58.1995C28.7605 58.2008 28.8378 58.1995 28.8731 58.198C31.104 58.1082 33.6755 55.5767 35.8759 52.6691C36.8075 53.5107 39.3253 55.4255 42.9503 55.4255C47.0631 55.3638 52.3832 50.8025 56.5995 46.2586C57.9894 49.3478 61.8022 50.8183 63.7227 51.3279C64.273 51.4737 64.8167 51.0681 64.826 50.4991C65.01 39.4388 68.0805 31.0429 70.6523 24.0105C72.547 18.8298 74.171 14.3891 74.171 10.1682C74.171 6.8895 69.9181 4.55298 67.7935 3.59052C67.2458 3.34232 66.6106 3.70956 66.56 4.30867C66.1801 8.79929 63.8765 15.6236 61.5251 22.5892C59.9244 27.3312 58.3015 32.1388 57.2484 36.3202C54.2584 41.3187 48.5982 47.8002 42.1302 50.7257C42.1209 49.7998 42.1483 48.7134 42.2391 47.44C42.3846 45.3973 42.7687 43.3176 43.3121 41.2928C43.9457 41.7181 44.8856 42.1139 46.256 42.2117C49.8955 42.4708 54.1362 40.1654 54.4918 35.1676C55.0605 27.1819 53.694 24.3956 49.8369 24.1212L49.7555 24.1153C48.2616 24.0089 45.1797 24.1581 42.4593 26.5169C38.4904 29.9582 35.04 38.9952 34.0874 46.0838C33.1327 48.1332 31.457 50.9939 29.0225 52.9694C29.7707 45.0974 31.3887 40.2853 32.5281 36.8968C33.2463 34.7606 33.7743 33.1902 33.7743 31.7755C33.7743 29.2022 31.8139 26.8333 29.9349 26.8333C29.8788 26.8333 29.6423 26.8374 29.5124 26.8636C28.3183 27.103 24.7008 29.8851 21.2042 33.1073C21.408 32.5329 21.6104 31.9661 21.8101 31.4068C23.9195 25.4985 25.7279 20.4336 25.7279 16.2133C25.7279 12.9197 21.4366 10.5773 19.3216 9.62283C18.7811 9.37878 18.1625 9.73279 18.093 10.3218C17.6543 14.0436 15.4359 20.8582 13.0609 28.1535C9.95017 37.7088 6.57098 48.0889 6.57098 53.4238C6.57098 58.2389 11.8439 60.3379 14.2185 60.9679ZM48.6716 35.1217C48.5207 37.2404 47.0465 38.7734 45.1996 38.6419C44.8028 38.6136 44.4836 38.505 44.2206 38.3556C45.209 35.5312 46.4518 32.9195 47.7125 30.8011C48.3617 30.8585 48.822 33.0085 48.6716 35.1217Z" fill="#313945"/>
<path d="M109.278 16.8471C110.405 16.5382 114.663 13.9024 113.338 9.07041C112.762 6.96964 110.841 6.5928 109.401 6.98754C107.21 7.5882 103.925 10.5786 104.933 14.2551C105.61 16.7237 107.15 17.4309 109.278 16.8471Z" fill="#313945"/>
<path d="M172.359 9.05223C179.698 8.95626 179.825 10.3381 179.933 12.6067C179.973 13.4366 179.738 14.0562 179.549 14.4131C179.44 14.62 179.206 14.7253 178.979 14.6662C178.025 14.4172 175.141 14.0015 170.799 13.9366C170.626 14.3804 170.446 14.837 170.26 15.3079L170.253 15.3259L170.253 15.3272C168.068 20.8621 165.101 28.3797 164.936 40.3643C164.928 40.9354 164.384 41.3441 163.832 41.1976C161.456 40.5668 156.187 38.4676 156.187 33.6545C156.187 28.4886 158.596 21.7844 160.897 15.3819C161.032 15.0073 161.166 14.6336 161.299 14.2613C158.256 14.4411 156.845 14.5614 155.864 14.6888C155.524 14.7331 155.283 14.4919 155.33 14.1514C155.443 13.3111 155.699 12.0872 156.964 11.167C157.879 10.501 160.35 10.0274 162.885 9.70632C163.93 6.5518 164.739 3.63018 164.954 1.20418C165.007 0.601184 165.649 0.240942 166.2 0.491218C168.329 1.45679 172.567 3.79072 172.567 7.06376C172.567 7.71007 172.492 8.36987 172.359 9.05223Z" fill="#313945"/>
<path d="M168.614 43.6484C110.759 43.7174 20.0317 60.4125 7.06117 66.2493C4.16885 67.551 0.764316 72.6929 0.0204896 75.3298C-0.0925886 75.7308 0.280362 76.098 0.680804 75.9826C82.4105 52.4807 156.955 48.3802 164.999 47.9378C165.419 47.9147 165.658 47.9015 165.707 47.8961C166.635 47.7927 168.734 46.2254 168.955 44.0253C168.976 43.8181 168.822 43.6482 168.614 43.6484Z" fill="#313945"/>
<path fill-rule="evenodd" clip-rule="evenodd" d="M164.819 76.132H163.575V68.6201H166.29C167.148 68.6201 167.846 68.8776 168.296 69.3281C168.694 69.7252 168.919 70.2939 168.919 70.9807V71.0238C168.919 72.1825 168.275 72.9017 167.363 73.2236L169.133 76.132H167.695L166.096 73.4705C166.075 73.4811 166.043 73.4811 166.021 73.4811H164.819V76.132ZM164.819 69.7576V72.3651H166.161C167.127 72.3651 167.663 71.8501 167.663 71.0666V71.045C167.663 70.1975 167.116 69.7576 166.182 69.7576H164.819Z" fill="#313945"/>
<path d="M161.493 73.2236C161.493 75.2411 160.387 76.25 158.692 76.25C157.018 76.25 155.913 75.2305 155.913 73.2666V68.6201H157.157V73.256C157.157 74.4685 157.748 75.1016 158.713 75.1016C159.658 75.1016 160.259 74.49 160.259 73.2988V68.6201H161.493V73.2236Z" fill="#313945"/>
<path d="M152.328 76.132H151.083V69.7789H149.109V68.6201H154.303V69.7789H152.328V76.132Z" fill="#313945"/>
<path d="M142.96 76.132H141.737V68.6201H142.895L146.201 73.6316V68.6201H147.413V76.132H146.362L142.96 70.9701V76.132Z" fill="#313945"/>
<path d="M139.89 76.132H135.104V68.6201H139.837V69.7467H136.338V71.7857H139.44V72.9126H136.338V75.0051H139.89V76.132Z" fill="#313945"/>
<path d="M133.098 75.327C132.465 75.8311 131.595 76.2391 130.533 76.2391C128.494 76.2391 127.099 74.7369 127.099 72.4295V72.3436C127.099 70.1331 128.526 68.5127 130.543 68.5127C131.563 68.5127 132.261 68.8024 132.926 69.3603L132.185 70.3476C131.756 69.9614 131.284 69.6715 130.522 69.6715C129.299 69.6715 128.387 70.7768 128.387 72.333V72.3973C128.387 74.0927 129.309 75.1016 130.586 75.1016C131.112 75.1016 131.584 74.9408 131.917 74.7045V73.0519H130.34V71.9574H133.098V75.327Z" fill="#313945"/>
<path fill-rule="evenodd" clip-rule="evenodd" d="M120.681 76.132H119.426L122.184 68.577H123.386L126.144 76.132H124.845L124.223 74.3611H121.304L120.681 76.132ZM122.763 70.2402L121.69 73.256H123.837L122.763 70.2402Z" fill="#313945"/>
<path d="M118.321 76.132H113.856V68.6201H115.101V74.9836H118.321V76.132Z" fill="#313945"/>
<path fill-rule="evenodd" clip-rule="evenodd" d="M106.785 76.132H105.529L108.287 68.577H109.489L112.246 76.132H110.948L110.326 74.3611H107.407L106.785 76.132ZM108.866 70.2402L107.793 73.256H109.939L108.866 70.2402Z" fill="#313945"/>
<path d="M103.19 76.132H101.945V69.7789H99.97V68.6201H105.164V69.7789H103.19V76.132Z" fill="#313945"/>
<path d="M98.2206 76.132H96.976V68.6201H98.2206V76.132Z" fill="#313945"/>
<path d="M94.9048 75.327C94.2717 75.8311 93.4024 76.2391 92.3401 76.2391C90.301 76.2391 88.906 74.7369 88.906 72.4295V72.3436C88.906 70.1331 90.3332 68.5127 92.351 68.5127C93.3702 68.5127 94.0679 68.8024 94.7331 69.3603L93.9927 70.3476C93.5632 69.9614 93.0911 69.6715 92.3294 69.6715C91.1061 69.6715 90.1936 70.7768 90.1936 72.333V72.3973C90.1936 74.0927 91.1167 75.1016 92.3937 75.1016C92.9195 75.1016 93.3917 74.9408 93.7242 74.7045V73.0519H92.1468V71.9574H94.9048V75.327Z" fill="#313945"/>
<path d="M86.9637 76.132H85.7188V68.6201H86.9637V76.132Z" fill="#313945"/>
<path fill-rule="evenodd" clip-rule="evenodd" d="M80.2028 76.132H77.9062V68.6201H80.2028C82.3492 68.6201 83.7658 70.1222 83.7658 72.3221V72.4079C83.7658 74.608 82.3492 76.132 80.2028 76.132ZM82.4779 72.3542C82.4779 70.7338 81.5657 69.7467 80.1922 69.7467H79.1511V75.0051H80.1922C81.5657 75.0051 82.4779 74.0284 82.4779 72.4188V72.3542Z" fill="#313945"/>
</g>
<defs>
<clipPath id="clip0_18_463">
<rect width="180" height="77" fill="white"/>
</clipPath>
</defs>
</svg>
